<svg xmlns="http://www.w3.org/2000/svg" viewBox="0 0 100 100" width="100" height="100">
  <!-- Adinkra Symbol: Sankofa (Learn from the past) -->
  <g fill="currentColor">
    <path d="M50,10 C28.4,10 11,27.4 11,49 C11,70.6 28.4,88 50,88 C71.6,88 89,70.6 89,49 C89,27.4 71.6,10 50,10 Z M50,85 C30.1,85 14,68.9 14,49 C14,29.1 30.1,13 50,13 C69.9,13 86,29.1 86,49 C86,68.9 69.9,85 50,85 Z" />
    <path d="M65.5,30.8 C63.6,29.3 61.1,28.5 58.5,28.5 C55.9,28.5 53.4,29.3 51.5,30.8 C49.6,32.3 48.3,34.5 48,36.9 C47.7,39.3 48.4,41.8 50,43.7 L50,43.7 L50,43.7 C51.6,45.6 53.9,46.8 56.5,47 C59.1,47.2 61.6,46.3 63.5,44.5 C65.4,42.7 66.5,40.2 66.5,37.5 C66.5,35.1 65.5,32.8 63.7,31.2 L63.7,31.2 L65.5,30.8 Z M58.5,44 C56.7,44 55,43.2 53.8,41.8 C52.6,40.4 52,38.5 52,36.5 C52,34.5 52.6,32.6 53.8,31.2 C55,29.8 56.7,29 58.5,29 C60.3,29 62,29.8 63.2,31.2 C64.4,32.6 65,34.5 65,36.5 C65,38.5 64.4,40.4 63.2,41.8 C62,43.2 60.3,44 58.5,44 Z" />
    <path d="M50,43.7 C48.4,41.8 47.7,39.3 48,36.9 C48.3,34.5 49.6,32.3 51.5,30.8 C53.4,29.3 55.9,28.5 58.5,28.5 C61.1,28.5 63.6,29.3 65.5,30.8 L63.7,31.2 C61.9,29.6 59.5,28.7 57,28.7 C54.5,28.7 52.1,29.6 50.3,31.2 C48.5,32.8 47.5,35.1 47.5,37.5 C47.5,40.2 48.6,42.7 50.5,44.5 C52.4,46.3 54.9,47.2 57.5,47 C60.1,46.8 62.4,45.6 64,43.7 L50,43.7 Z" />
    <path d="M41.5,69.2 C43.4,70.7 45.9,71.5 48.5,71.5 C51.1,71.5 53.6,70.7 55.5,69.2 C57.4,67.7 58.7,65.5 59,63.1 C59.3,60.7 58.6,58.2 57,56.3 L57,56.3 L57,56.3 C55.4,54.4 53.1,53.2 50.5,53 C47.9,52.8 45.4,53.7 43.5,55.5 C41.6,57.3 40.5,59.8 40.5,62.5 C40.5,64.9 41.5,67.2 43.3,68.8 L43.3,68.8 L41.5,69.2 Z M48.5,56 C50.3,56 52,56.8 53.2,58.2 C54.4,59.6 55,61.5 55,63.5 C55,65.5 54.4,67.4 53.2,68.8 C52,70.2 50.3,71 48.5,71 C46.7,71 45,70.2 43.8,68.8 C42.6,67.4 42,65.5 42,63.5 C42,61.5 42.6,59.6 43.8,58.2 C45,56.8 46.7,56 48.5,56 Z" />
    <path d="M57,56.3 C58.6,58.2 59.3,60.7 59,63.1 C58.7,65.5 57.4,67.7 55.5,69.2 C53.6,70.7 51.1,71.5 48.5,71.5 C45.9,71.5 43.4,70.7 41.5,69.2 L43.3,68.8 C45.1,70.4 47.5,71.3 50,71.3 C52.5,71.3 54.9,70.4 56.7,68.8 C58.5,67.2 59.5,64.9 59.5,62.5 C59.5,59.8 58.4,57.3 56.5,55.5 C54.6,53.7 52.1,52.8 49.5,53 C46.9,53.2 44.6,54.4 43,56.3 L57,56.3 Z" />
    <path d="M50,49 C50,49 65,35 65,35 L65,65 L35,65 L35,35 L50,49 Z" />
  </g>
</svg>